<svg xmlns="http://www.w3.org/2000/svg" version="1.1" xmlns:xlink="http://www.w3.org/1999/xlink" xmlns:svgjs="http://svgjs.dev/svgjs" viewBox="0 0 800 800" opacity="0.95" width="800" height="800"><g stroke-width="0.75" stroke="hsla(56, 8%, 87%, 1.00)" fill="none"><rect width="80" height="66.66666666666667" x="0" y="0"></rect><rect width="80" height="66.66666666666667" x="80" y="0"></rect><rect width="80" height="66.66666666666667" x="160" y="0"></rect><rect width="80" height="66.66666666666667" x="240" y="0"></rect><rect width="80" height="66.66666666666667" x="320" y="0"></rect><rect width="80" height="66.66666666666667" x="400" y="0"></rect><rect width="80" height="66.66666666666667" x="480" y="0"></rect><rect width="80" height="66.66666666666667" x="560" y="0"></rect><rect width="80" height="66.66666666666667" x="640" y="0"></rect><rect width="80" height="66.66666666666667" x="720" y="0"></rect><rect width="80" height="66.66666666666667" x="800" y="0"></rect><rect width="80" height="66.66666666666667" x="0" y="66.66666666666667"></rect><rect width="80" height="66.66666666666667" x="80" y="66.66666666666667"></rect><rect width="80" height="66.66666666666667" x="160" y="66.66666666666667"></rect><rect width="80" height="66.66666666666667" x="240" y="66.66666666666667"></rect><rect width="80" height="66.66666666666667" x="320" y="66.66666666666667"></rect><rect width="80" height="66.66666666666667" x="400" y="66.66666666666667"></rect><rect width="80" height="66.66666666666667" x="480" y="66.66666666666667"></rect><rect width="80" height="66.66666666666667" x="560" y="66.66666666666667"></rect><rect width="80" height="66.66666666666667" x="640" y="66.66666666666667"></rect><rect width="80" height="66.66666666666667" x="720" y="66.66666666666667"></rect><rect width="80" height="66.66666666666667" x="800" y="66.66666666666667"></rect><rect width="80" height="66.66666666666667" x="0" y="133.33333333333334"></rect><rect width="80" height="66.66666666666667" x="80" y="133.33333333333334"></rect><rect width="80" height="66.66666666666667" x="160" y="133.33333333333334"></rect><rect width="80" height="66.66666666666667" x="240" y="133.33333333333334"></rect><rect width="80" height="66.66666666666667" x="320" y="133.33333333333334"></rect><rect width="80" height="66.66666666666667" x="400" y="133.33333333333334"></rect><rect width="80" height="66.66666666666667" x="480" y="133.33333333333334"></rect><rect width="80" height="66.66666666666667" x="560" y="133.33333333333334"></rect><rect width="80" height="66.66666666666667" x="640" y="133.33333333333334"></rect><rect width="80" height="66.66666666666667" x="720" y="133.33333333333334"></rect><rect width="80" height="66.66666666666667" x="800" y="133.33333333333334"></rect><rect width="80" height="66.66666666666667" x="0" y="200"></rect><rect width="80" height="66.66666666666667" x="80" y="200"></rect><rect width="80" height="66.66666666666667" x="160" y="200"></rect><rect width="80" height="66.66666666666667" x="240" y="200"></rect><rect width="80" height="66.66666666666667" x="320" y="200"></rect><rect width="80" height="66.66666666666667" x="400" y="200"></rect><rect width="80" height="66.66666666666667" x="480" y="200"></rect><rect width="80" height="66.66666666666667" x="560" y="200"></rect><rect width="80" height="66.66666666666667" x="640" y="200"></rect><rect width="80" height="66.66666666666667" x="720" y="200"></rect><rect width="80" height="66.66666666666667" x="800" y="200"></rect><rect width="80" height="66.66666666666667" x="0" y="266.6666666666667"></rect><rect width="80" height="66.66666666666667" x="80" y="266.6666666666667"></rect><rect width="80" height="66.66666666666667" x="160" y="266.6666666666667"></rect><rect width="80" height="66.66666666666667" x="240" y="266.6666666666667"></rect><rect width="80" height="66.66666666666667" x="320" y="266.6666666666667"></rect><rect width="80" height="66.66666666666667" x="400" y="266.6666666666667"></rect><rect width="80" height="66.66666666666667" x="480" y="266.6666666666667"></rect><rect width="80" height="66.66666666666667" x="560" y="266.6666666666667"></rect><rect width="80" height="66.66666666666667" x="640" y="266.6666666666667"></rect><rect width="80" height="66.66666666666667" x="720" y="266.6666666666667"></rect><rect width="80" height="66.66666666666667" x="800" y="266.6666666666667"></rect><rect width="80" height="66.66666666666667" x="0" y="333.33333333333337"></rect><rect width="80" height="66.66666666666667" x="80" y="333.33333333333337"></rect><rect width="80" height="66.66666666666667" x="160" y="333.33333333333337"></rect><rect width="80" height="66.66666666666667" x="240" y="333.33333333333337"></rect><rect width="80" height="66.66666666666667" x="320" y="333.33333333333337"></rect><rect width="80" height="66.66666666666667" x="400" y="333.33333333333337"></rect><rect width="80" height="66.66666666666667" x="480" y="333.33333333333337"></rect><rect width="80" height="66.66666666666667" x="560" y="333.33333333333337"></rect><rect width="80" height="66.66666666666667" x="640" y="333.33333333333337"></rect><rect width="80" height="66.66666666666667" x="720" y="333.33333333333337"></rect><rect width="80" height="66.66666666666667" x="800" y="333.33333333333337"></rect><rect width="80" height="66.66666666666667" x="0" y="400.00000000000006"></rect><rect width="80" height="66.66666666666667" x="80" y="400.00000000000006"></rect><rect width="80" height="66.66666666666667" x="160" y="400.00000000000006"></rect><rect width="80" height="66.66666666666667" x="240" y="400.00000000000006"></rect><rect width="80" height="66.66666666666667" x="320" y="400.00000000000006"></rect><rect width="80" height="66.66666666666667" x="400" y="400.00000000000006"></rect><rect width="80" height="66.66666666666667" x="480" y="400.00000000000006"></rect><rect width="80" height="66.66666666666667" x="560" y="400.00000000000006"></rect><rect width="80" height="66.66666666666667" x="640" y="400.00000000000006"></rect><rect width="80" height="66.66666666666667" x="720" y="400.00000000000006"></rect><rect width="80" height="66.66666666666667" x="800" y="400.00000000000006"></rect><rect width="80" height="66.66666666666667" x="0" y="466.66666666666674"></rect><rect width="80" height="66.66666666666667" x="80" y="466.66666666666674"></rect><rect width="80" height="66.66666666666667" x="160" y="466.66666666666674"></rect><rect width="80" height="66.66666666666667" x="240" y="466.66666666666674"></rect><rect width="80" height="66.66666666666667" x="320" y="466.66666666666674"></rect><rect width="80" height="66.66666666666667" x="400" y="466.66666666666674"></rect><rect width="80" height="66.66666666666667" x="480" y="466.66666666666674"></rect><rect width="80" height="66.66666666666667" x="560" y="466.66666666666674"></rect><rect width="80" height="66.66666666666667" x="640" y="466.66666666666674"></rect><rect width="80" height="66.66666666666667" x="720" y="466.66666666666674"></rect><rect width="80" height="66.66666666666667" x="800" y="466.66666666666674"></rect><rect width="80" height="66.66666666666667" x="0" y="533.3333333333334"></rect><rect width="80" height="66.66666666666667" x="80" y="533.3333333333334"></rect><rect width="80" height="66.66666666666667" x="160" y="533.3333333333334"></rect><rect width="80" height="66.66666666666667" x="240" y="533.3333333333334"></rect><rect width="80" height="66.66666666666667" x="320" y="533.3333333333334"></rect><rect width="80" height="66.66666666666667" x="400" y="533.3333333333334"></rect><rect width="80" height="66.66666666666667" x="480" y="533.3333333333334"></rect><rect width="80" height="66.66666666666667" x="560" y="533.3333333333334"></rect><rect width="80" height="66.66666666666667" x="640" y="533.3333333333334"></rect><rect width="80" height="66.66666666666667" x="720" y="533.3333333333334"></rect><rect width="80" height="66.66666666666667" x="800" y="533.3333333333334"></rect><rect width="80" height="66.66666666666667" x="0" y="600"></rect><rect width="80" height="66.66666666666667" x="80" y="600"></rect><rect width="80" height="66.66666666666667" x="160" y="600"></rect><rect width="80" height="66.66666666666667" x="240" y="600"></rect><rect width="80" height="66.66666666666667" x="320" y="600"></rect><rect width="80" height="66.66666666666667" x="400" y="600"></rect><rect width="80" height="66.66666666666667" x="480" y="600"></rect><rect width="80" height="66.66666666666667" x="560" y="600"></rect><rect width="80" height="66.66666666666667" x="640" y="600"></rect><rect width="80" height="66.66666666666667" x="720" y="600"></rect><rect width="80" height="66.66666666666667" x="800" y="600"></rect><rect width="80" height="66.66666666666667" x="0" y="666.6666666666666"></rect><rect width="80" height="66.66666666666667" x="80" y="666.6666666666666"></rect><rect width="80" height="66.66666666666667" x="160" y="666.6666666666666"></rect><rect width="80" height="66.66666666666667" x="240" y="666.6666666666666"></rect><rect width="80" height="66.66666666666667" x="320" y="666.6666666666666"></rect><rect width="80" height="66.66666666666667" x="400" y="666.6666666666666"></rect><rect width="80" height="66.66666666666667" x="480" y="666.6666666666666"></rect><rect width="80" height="66.66666666666667" x="560" y="666.6666666666666"></rect><rect width="80" height="66.66666666666667" x="640" y="666.6666666666666"></rect><rect width="80" height="66.66666666666667" x="720" y="666.6666666666666"></rect><rect width="80" height="66.66666666666667" x="800" y="666.6666666666666"></rect><rect width="80" height="66.66666666666667" x="0" y="733.3333333333333"></rect><rect width="80" height="66.66666666666667" x="80" y="733.3333333333333"></rect><rect width="80" height="66.66666666666667" x="160" y="733.3333333333333"></rect><rect width="80" height="66.66666666666667" x="240" y="733.3333333333333"></rect><rect width="80" height="66.66666666666667" x="320" y="733.3333333333333"></rect><rect width="80" height="66.66666666666667" x="400" y="733.3333333333333"></rect><rect width="80" height="66.66666666666667" x="480" y="733.3333333333333"></rect><rect width="80" height="66.66666666666667" x="560" y="733.3333333333333"></rect><rect width="80" height="66.66666666666667" x="640" y="733.3333333333333"></rect><rect width="80" height="66.66666666666667" x="720" y="733.3333333333333"></rect><rect width="80" height="66.66666666666667" x="800" y="733.3333333333333"></rect><rect width="80" height="66.66666666666667" x="0" y="799.9999999999999"></rect><rect width="80" height="66.66666666666667" x="80" y="799.9999999999999"></rect><rect width="80" height="66.66666666666667" x="160" y="799.9999999999999"></rect><rect width="80" height="66.66666666666667" x="240" y="799.9999999999999"></rect><rect width="80" height="66.66666666666667" x="320" y="799.9999999999999"></rect><rect width="80" height="66.66666666666667" x="400" y="799.9999999999999"></rect><rect width="80" height="66.66666666666667" x="480" y="799.9999999999999"></rect><rect width="80" height="66.66666666666667" x="560" y="799.9999999999999"></rect><rect width="80" height="66.66666666666667" x="640" y="799.9999999999999"></rect><rect width="80" height="66.66666666666667" x="720" y="799.9999999999999"></rect><rect width="80" height="66.66666666666667" x="800" y="799.9999999999999"></rect></g></svg>